<svg width="33" height="33" viewBox="0 0 40 40" fill="none" xmlns="http://www.w3.org/2000/svg">
<g clip-path="url(#clip0_4001_4078)">
<circle cx="20" cy="20" r="20" fill="#F43F33"/>
<g clip-path="url(#clip1_4001_4078)">
<path fill-rule="evenodd" clip-rule="evenodd" d="M9.43649 28.7024H30.5652C30.9174 28.7024 31.2086 28.9899 31.2086 29.3458V31.2401C31.2086 31.5924 30.9174 31.8835 30.5652 31.8835H9.43649C9.08063 31.8835 8.79307 31.5924 8.79307 31.2401V29.3458C8.79307 28.9899 9.08063 28.7024 9.43649 28.7024ZM20.0008 5C20.425 5 20.7737 5.34867 20.7737 5.77283V9.48598C20.7737 9.91373 20.425 10.2588 20.0008 10.2588C19.5767 10.2588 19.228 9.91373 19.228 9.48598V5.77283C19.228 5.34867 19.5767 5 20.0008 5ZM5.03677 15.8699C5.16977 15.4673 5.60831 15.2408 6.01449 15.3738L9.54432 16.5205C9.95051 16.6535 10.1734 17.092 10.0404 17.4946C9.91097 17.9008 9.47243 18.1237 9.06625 17.9942L5.53642 16.844C5.13023 16.7146 4.90737 16.2761 5.03677 15.8699ZM10.7521 8.00503C11.0972 7.75342 11.5824 7.83249 11.834 8.17398L14.0159 11.179C14.2675 11.5241 14.1885 12.0093 13.847 12.261C13.5019 12.509 13.0166 12.4335 12.765 12.0884L10.5831 9.08339C10.3315 8.74191 10.4106 8.25306 10.7521 8.00503ZM34.9613 15.8699C35.0943 16.2761 34.8714 16.7146 34.4652 16.844L30.9354 17.9942C30.5292 18.1237 30.0907 17.9008 29.9613 17.4946C29.8283 17.092 30.0512 16.6535 30.4573 16.5205L33.9872 15.3738C34.3934 15.2408 34.8319 15.4673 34.9613 15.8699ZM29.246 8.00503C29.5911 8.25306 29.6701 8.74191 29.4185 9.08339L27.2366 12.0884C26.985 12.4335 26.4998 12.509 26.1547 12.261C25.8132 12.0093 25.7341 11.5241 25.9857 11.179L28.1676 8.17398C28.4156 7.83249 28.9045 7.75342 29.246 8.00503ZM20.0008 12.3077C24.1417 12.3077 27.5314 15.6973 27.5314 19.8382V27.5306H12.4703V19.8382C12.4703 15.6973 15.8599 12.3077 20.0008 12.3077ZM19.077 16.1143H20.9246C21.0576 16.1143 21.1691 16.2257 21.1691 16.3623V19.5615H24.3718C24.5048 19.5615 24.6162 19.6729 24.6162 19.8095V21.6535C24.6162 21.7901 24.5048 21.9015 24.3718 21.9015H21.1691V25.1006C21.1691 25.2372 21.0576 25.3487 20.9246 25.3487H19.077C18.9404 25.3487 18.8326 25.2372 18.8326 25.1006V21.9015H15.6299C15.4969 21.9015 15.3854 21.7901 15.3854 21.6535V19.8095C15.3854 19.6729 15.4969 19.5615 15.6299 19.5615H18.8326V16.3623C18.8326 16.2257 18.9404 16.1143 19.077 16.1143Z" fill="white"/>
</g>
</g>
<defs>
<clipPath id="clip0_4001_4078">
<rect width="40" height="40" fill="white"/>
</clipPath>
<clipPath id="clip1_4001_4078">
<rect width="30" height="30" fill="white" transform="translate(5 5)"/>
</clipPath>
</defs>
</svg>
