<svg width="30" height="30" viewBox="0 0 36 36" fill="none" xmlns="http://www.w3.org/2000/svg">
<g clip-path="url(#clip0_4001_4057)">
<path d="M36 18.2745C35.9988 19.2818 35.5996 20.2475 34.89 20.9598C34.1804 21.6721 33.2183 22.0728 32.2147 22.074C29.283 22.074 27.465 18.8542 28.9598 16.333C29.0412 16.1957 29.1736 16.0966 29.3279 16.0573C29.4822 16.0181 29.6457 16.042 29.7825 16.1237C29.9193 16.2055 30.018 16.3384 30.0571 16.4933C30.0962 16.6482 30.0725 16.8123 29.991 16.9496C28.9748 18.6637 30.2063 20.8695 32.2147 20.8695C32.8929 20.8579 33.5393 20.5793 34.0148 20.0939C34.4903 19.6084 34.7567 18.9549 34.7567 18.2741C34.7567 17.5934 34.4903 16.9399 34.0148 16.4544C33.5393 15.9689 32.8929 15.6904 32.2147 15.6788C32.0556 15.6788 31.903 15.6154 31.7905 15.5024C31.678 15.3895 31.6147 15.2363 31.6147 15.0766V11.1619C31.6232 10.4379 31.4884 9.71931 31.2182 9.04789C30.948 8.37648 30.5478 7.76557 30.0407 7.25054C29.5336 6.73552 28.9297 6.32662 28.264 6.04755C27.5983 5.76849 26.884 5.62479 26.1626 5.62479C25.4412 5.62479 24.727 5.76849 24.0613 6.04755C23.3956 6.32662 22.7917 6.73552 22.2846 7.25054C21.7775 7.76557 21.3772 8.37648 21.107 9.04789C20.8368 9.71931 20.702 10.4379 20.7105 11.1619V28.1078C20.6919 29.8664 19.9829 31.5466 18.7374 32.7836C17.4919 34.0205 15.8105 34.7143 14.0584 34.7143C12.3063 34.7143 10.6249 34.0205 9.37939 32.7836C8.13389 31.5466 7.42486 29.8664 7.40625 28.1078V24.9241C6.978 24.7835 6.6032 24.514 6.33272 24.1523C6.06224 23.7906 5.90916 23.3541 5.89425 22.9021C4.19844 22.4307 2.70352 21.4139 1.63881 20.0077C0.574095 18.6015 -0.00160992 16.8835 3.38148e-06 15.1172V13.7622C0.000579213 13.2234 0.181442 12.7005 0.513571 12.2773C0.845699 11.8541 1.30984 11.5551 1.8315 11.4284V5.08522C1.8325 4.41714 2.09739 3.77671 2.5681 3.30438C3.03881 2.83204 3.67692 2.56635 4.3425 2.56555H4.93725V1.88802C4.93725 1.72829 5.00047 1.57511 5.11299 1.46216C5.22551 1.34922 5.37812 1.28577 5.53725 1.28577C5.69638 1.28577 5.849 1.34922 5.96152 1.46216C6.07404 1.57511 6.13725 1.72829 6.13725 1.88802V4.44759C6.13725 4.60731 6.07404 4.7605 5.96152 4.87344C5.849 4.98639 5.69638 5.04984 5.53725 5.04984C5.37812 5.04984 5.22551 4.98639 5.11299 4.87344C5.00047 4.7605 4.93725 4.60731 4.93725 4.44759V3.77005H4.3425C3.99506 3.77045 3.66194 3.90912 3.41619 4.15565C3.17044 4.40218 3.0321 4.73647 3.0315 5.08522V11.9592C3.03155 12.0399 3.0154 12.1199 2.98404 12.1942C2.95267 12.2686 2.90673 12.3359 2.84893 12.3921C2.79113 12.4483 2.72267 12.4922 2.64761 12.5213C2.57255 12.5504 2.49242 12.564 2.412 12.5614C1.64325 12.587 1.2 13.1637 1.2 13.7591V15.1142C1.19862 16.6883 1.73599 18.2151 2.72215 19.4391C3.70831 20.663 5.08341 21.5098 6.61725 21.8376C6.75182 21.8662 6.87249 21.9404 6.95906 22.0477C7.04562 22.1551 7.09282 22.289 7.09275 22.427V22.8298C7.09986 23.0893 7.20756 23.3358 7.39294 23.5168C7.57831 23.6978 7.82674 23.7991 8.08538 23.7991C8.34401 23.7991 8.59244 23.6978 8.77782 23.5168C8.9632 23.3358 9.0709 23.0893 9.078 22.8298V22.4097C9.078 22.25 9.14122 22.0968 9.25374 21.9839C9.36626 21.8709 9.51887 21.8075 9.678 21.8075C9.83713 21.8075 9.98975 21.8709 10.1023 21.9839C10.2148 22.0968 10.278 22.25 10.278 22.4097V22.8305C10.2774 23.3231 10.1124 23.8012 9.8094 24.1886C9.50638 24.576 9.08279 24.8503 8.60625 24.9678V28.1063C8.62308 29.5466 9.20491 30.9221 10.2256 31.9347C11.2462 32.9472 12.6234 33.515 14.0584 33.515C15.4934 33.515 16.8706 32.9472 17.8912 31.9347C18.9118 30.9221 19.4937 29.5466 19.5105 28.1063V11.1604C19.5012 10.2776 19.6663 9.40171 19.9964 8.58338C20.3266 7.76506 20.8151 7.02057 21.4337 6.39298C22.0523 5.7654 22.7888 5.26718 23.6005 4.92716C24.4122 4.58714 25.2831 4.41207 26.1626 4.41207C27.0422 4.41207 27.913 4.58714 28.7247 4.92716C29.5364 5.26718 30.2729 5.7654 30.8916 6.39298C31.5102 7.02057 31.9987 7.76506 32.3288 8.58338C32.6589 9.40171 32.8241 10.2776 32.8148 11.1604V14.5232C33.7028 14.6674 34.5108 15.1239 35.0944 15.8112C35.6779 16.4984 35.9989 17.3715 36 18.2745ZM11.3078 13.7576V14.9569C11.3086 15.8209 10.9688 16.6503 10.3626 17.2638C9.75645 17.8773 8.93308 18.2252 8.07225 18.2316C6.261 18.2467 4.7835 16.6989 4.7835 14.8884V13.7591C4.7835 13.5994 4.72029 13.4462 4.60777 13.3333C4.49524 13.2203 4.34263 13.1569 4.1835 13.1569C4.02437 13.1569 3.87176 13.2203 3.75924 13.3333C3.64672 13.4462 3.5835 13.5994 3.5835 13.7591V14.8884C3.5835 17.3305 5.565 19.4542 8.0835 19.4361C9.26077 19.427 10.3867 18.9509 11.2156 18.1118C12.0446 17.2727 12.5093 16.1386 12.5085 14.9569V13.7584C12.5088 13.4553 12.6237 13.1635 12.83 12.9422C13.0363 12.7208 13.3187 12.5863 13.62 12.5659C13.6909 12.5794 13.7636 12.5794 13.8345 12.5659C14.1253 12.5994 14.3938 12.7389 14.5888 12.9581C14.7838 13.1773 14.8917 13.4608 14.892 13.7546V15.1097C14.8953 16.1632 14.6558 17.2033 14.1921 18.1484C13.7284 19.0936 13.0531 19.9182 12.219 20.5578C12.1544 20.6052 12.0998 20.6651 12.0586 20.7339C12.0174 20.8028 11.9903 20.8792 11.979 20.9588C11.9676 21.0383 11.9723 21.1193 11.9926 21.197C12.0129 21.2747 12.0485 21.3475 12.0973 21.4112C12.1461 21.4749 12.2071 21.5282 12.2766 21.5678C12.3462 21.6075 12.423 21.6328 12.5025 21.6422C12.582 21.6516 12.6626 21.645 12.7395 21.6227C12.8164 21.6004 12.888 21.5629 12.9503 21.5124C13.9302 20.7613 14.7237 19.7928 15.2688 18.6827C15.8138 17.5726 16.0956 16.351 16.092 15.1135V13.7584C16.0905 13.2343 15.9185 12.725 15.6021 12.3081C15.2857 11.8911 14.8423 11.5894 14.3393 11.4488V5.08522C14.3383 4.41714 14.0734 3.77671 13.6027 3.30438C13.1319 2.83204 12.4938 2.56635 11.8283 2.56555H11.2335V1.88802C11.2335 1.72829 11.1703 1.57511 11.0578 1.46216C10.9452 1.34922 10.7926 1.28577 10.6335 1.28577C10.4744 1.28577 10.3218 1.34922 10.2092 1.46216C10.0967 1.57511 10.0335 1.72829 10.0335 1.88802V4.44759C10.0335 4.60731 10.0967 4.7605 10.2092 4.87344C10.3218 4.98639 10.4744 5.04984 10.6335 5.04984C10.7926 5.04984 10.9452 4.98639 11.0578 4.87344C11.1703 4.7605 11.2335 4.60731 11.2335 4.44759V3.77005H11.8283C12.1758 3.77045 12.5091 3.90922 12.7548 4.15592C13.0006 4.40261 13.1389 4.73709 13.1393 5.08597V11.4254C12.6177 11.5521 12.1537 11.8509 11.8216 12.274C11.4894 12.697 11.3085 13.2198 11.3078 13.7584V13.7576Z" fill="#034EA1"/>
</g>
<defs>
<clipPath id="clip0_4001_4057">
<rect width="36" height="36" fill="white"/>
</clipPath>
</defs>
</svg>
