<svg width="217" height="19" viewBox="0 0 217 19" fill="none" xmlns="http://www.w3.org/2000/svg">
<path d="M6.00219 2.784H0.290188V0.863999H13.9942V2.784H8.28219V18H6.00219V2.784ZM23.8796 17.952C23.5276 18.16 23.0396 18.264 22.4156 18.264C21.8876 18.264 21.4636 18.12 21.1436 17.832C20.8396 17.528 20.6876 17.04 20.6876 16.368C20.1276 17.04 19.4716 17.528 18.7196 17.832C17.9836 18.12 17.1836 18.264 16.3196 18.264C15.7596 18.264 15.2236 18.2 14.7116 18.072C14.2156 17.944 13.7836 17.744 13.4156 17.472C13.0476 17.2 12.7516 16.848 12.5276 16.416C12.3196 15.968 12.2156 15.432 12.2156 14.808C12.2156 14.104 12.3356 13.528 12.5756 13.08C12.8156 12.632 13.1276 12.272 13.5116 12C13.9116 11.712 14.3596 11.496 14.8556 11.352C15.3676 11.208 15.8876 11.088 16.4156 10.992C16.9756 10.88 17.5036 10.8 17.9996 10.752C18.5116 10.688 18.9596 10.608 19.3436 10.512C19.7276 10.4 20.0316 10.248 20.2556 10.056C20.4796 9.848 20.5916 9.552 20.5916 9.168C20.5916 8.72 20.5036 8.36 20.3276 8.088C20.1676 7.816 19.9516 7.608 19.6796 7.464C19.4236 7.32 19.1276 7.224 18.7916 7.176C18.4716 7.128 18.1516 7.104 17.8316 7.104C16.9676 7.104 16.2476 7.272 15.6716 7.608C15.0956 7.928 14.7836 8.544 14.7356 9.456H12.6956C12.7276 8.688 12.8876 8.04 13.1756 7.512C13.4636 6.984 13.8476 6.56 14.3276 6.24C14.8076 5.904 15.3516 5.664 15.9596 5.52C16.5836 5.376 17.2476 5.304 17.9516 5.304C18.5116 5.304 19.0636 5.344 19.6076 5.424C20.1676 5.504 20.6716 5.672 21.1196 5.928C21.5676 6.168 21.9276 6.512 22.1996 6.96C22.4716 7.408 22.6076 7.992 22.6076 8.712V15.096C22.6076 15.576 22.6316 15.928 22.6796 16.152C22.7436 16.376 22.9356 16.488 23.2556 16.488C23.4316 16.488 23.6396 16.448 23.8796 16.368V17.952ZM20.5676 11.592C20.3116 11.784 19.9756 11.928 19.5596 12.024C19.1436 12.104 18.7036 12.176 18.2396 12.24C17.7916 12.288 17.3356 12.352 16.8716 12.432C16.4076 12.496 15.9916 12.608 15.6236 12.768C15.2556 12.928 14.9516 13.16 14.7116 13.464C14.4876 13.752 14.3756 14.152 14.3756 14.664C14.3756 15 14.4396 15.288 14.5676 15.528C14.7116 15.752 14.8876 15.936 15.0956 16.08C15.3196 16.224 15.5756 16.328 15.8636 16.392C16.1516 16.456 16.4556 16.488 16.7756 16.488C17.4476 16.488 18.0236 16.4 18.5036 16.224C18.9836 16.032 19.3756 15.8 19.6796 15.528C19.9836 15.24 20.2076 14.936 20.3516 14.616C20.4956 14.28 20.5676 13.968 20.5676 13.68V11.592ZM25.8982 0.863999H27.9382V18H25.8982V0.863999ZM31.2185 0.863999H33.2585V11.016L38.9225 5.592H41.6585L36.7385 10.104L42.0185 18H39.4265L35.1785 11.52L33.2585 13.296V18H31.2185V0.863999ZM53.0555 5.592H55.5275V7.392H53.0555V15.096C53.0555 15.336 53.0715 15.528 53.1035 15.672C53.1515 15.816 53.2315 15.928 53.3435 16.008C53.4555 16.088 53.6075 16.144 53.7995 16.176C54.0075 16.192 54.2715 16.2 54.5915 16.2H55.5275V18H53.9675C53.4395 18 52.9835 17.968 52.5995 17.904C52.2315 17.824 51.9275 17.688 51.6875 17.496C51.4635 17.304 51.2955 17.032 51.1835 16.68C51.0715 16.328 51.0155 15.864 51.0155 15.288V7.392H48.9035V5.592H51.0155V1.872H53.0555V5.592ZM59.2818 11.808C59.2818 12.56 59.3778 13.232 59.5698 13.824C59.7778 14.4 60.0578 14.888 60.4098 15.288C60.7618 15.672 61.1698 15.968 61.6338 16.176C62.1138 16.384 62.6178 16.488 63.1458 16.488C63.6738 16.488 64.1698 16.384 64.6338 16.176C65.1138 15.968 65.5298 15.672 65.8818 15.288C66.2338 14.888 66.5058 14.4 66.6978 13.824C66.9058 13.232 67.0098 12.56 67.0098 11.808C67.0098 11.056 66.9058 10.392 66.6978 9.816C66.5058 9.224 66.2338 8.728 65.8818 8.328C65.5298 7.928 65.1138 7.624 64.6338 7.416C64.1698 7.208 63.6738 7.104 63.1458 7.104C62.6178 7.104 62.1138 7.208 61.6338 7.416C61.1698 7.624 60.7618 7.928 60.4098 8.328C60.0578 8.728 59.7778 9.224 59.5698 9.816C59.3778 10.392 59.2818 11.056 59.2818 11.808ZM57.1218 11.808C57.1218 10.896 57.2498 10.048 57.5058 9.264C57.7618 8.464 58.1458 7.776 58.6578 7.2C59.1698 6.608 59.8018 6.144 60.5538 5.808C61.3058 5.472 62.1698 5.304 63.1458 5.304C64.1378 5.304 65.0018 5.472 65.7378 5.808C66.4898 6.144 67.1218 6.608 67.6338 7.2C68.1458 7.776 68.5298 8.464 68.7858 9.264C69.0418 10.048 69.1698 10.896 69.1698 11.808C69.1698 12.72 69.0418 13.568 68.7858 14.352C68.5298 15.136 68.1458 15.824 67.6338 16.416C67.1218 16.992 66.4898 17.448 65.7378 17.784C65.0018 18.104 64.1378 18.264 63.1458 18.264C62.1698 18.264 61.3058 18.104 60.5538 17.784C59.8018 17.448 59.1698 16.992 58.6578 16.416C58.1458 15.824 57.7618 15.136 57.5058 14.352C57.2498 13.568 57.1218 12.72 57.1218 11.808ZM79.7428 11.808C79.7428 12.56 79.8388 13.232 80.0308 13.824C80.2388 14.4 80.5188 14.888 80.8708 15.288C81.2228 15.672 81.6308 15.968 82.0948 16.176C82.5748 16.384 83.0788 16.488 83.6068 16.488C84.1348 16.488 84.6308 16.384 85.0948 16.176C85.5748 15.968 85.9908 15.672 86.3428 15.288C86.6948 14.888 86.9668 14.4 87.1588 13.824C87.3668 13.232 87.4708 12.56 87.4708 11.808C87.4708 11.056 87.3668 10.392 87.1588 9.816C86.9668 9.224 86.6948 8.728 86.3428 8.328C85.9908 7.928 85.5748 7.624 85.0948 7.416C84.6308 7.208 84.1348 7.104 83.6068 7.104C83.0788 7.104 82.5748 7.208 82.0948 7.416C81.6308 7.624 81.2228 7.928 80.8708 8.328C80.5188 8.728 80.2388 9.224 80.0308 9.816C79.8388 10.392 79.7428 11.056 79.7428 11.808ZM77.5828 11.808C77.5828 10.896 77.7108 10.048 77.9668 9.264C78.2228 8.464 78.6068 7.776 79.1188 7.2C79.6308 6.608 80.2628 6.144 81.0148 5.808C81.7668 5.472 82.6308 5.304 83.6068 5.304C84.5988 5.304 85.4628 5.472 86.1988 5.808C86.9508 6.144 87.5828 6.608 88.0948 7.2C88.6068 7.776 88.9908 8.464 89.2468 9.264C89.5028 10.048 89.6308 10.896 89.6308 11.808C89.6308 12.72 89.5028 13.568 89.2468 14.352C88.9908 15.136 88.6068 15.824 88.0948 16.416C87.5828 16.992 86.9508 17.448 86.1988 17.784C85.4628 18.104 84.5988 18.264 83.6068 18.264C82.6308 18.264 81.7668 18.104 81.0148 17.784C80.2628 17.448 79.6308 16.992 79.1188 16.416C78.6068 15.824 78.2228 15.136 77.9668 14.352C77.7108 13.568 77.5828 12.72 77.5828 11.808ZM102.308 18H100.388V16.032H100.34C99.908 16.8 99.356 17.368 98.684 17.736C98.012 18.088 97.22 18.264 96.308 18.264C95.492 18.264 94.812 18.16 94.268 17.952C93.724 17.728 93.284 17.416 92.948 17.016C92.612 16.616 92.372 16.144 92.228 15.6C92.1 15.04 92.036 14.424 92.036 13.752V5.592H94.076V13.992C94.076 14.76 94.3 15.368 94.748 15.816C95.196 16.264 95.812 16.488 96.596 16.488C97.22 16.488 97.756 16.392 98.204 16.2C98.668 16.008 99.052 15.736 99.356 15.384C99.66 15.032 99.884 14.624 100.028 14.16C100.188 13.68 100.268 13.16 100.268 12.6V5.592H102.308V18ZM105.3 5.592H107.22V8.208H107.268C107.764 7.2 108.372 6.456 109.092 5.976C109.812 5.496 110.724 5.272 111.828 5.304V7.464C111.012 7.464 110.316 7.576 109.74 7.8C109.164 8.024 108.7 8.352 108.348 8.784C107.996 9.216 107.74 9.744 107.58 10.368C107.42 10.976 107.34 11.68 107.34 12.48V18H105.3V5.592ZM123.332 10.92H129.14L126.284 2.928H126.236L123.332 10.92ZM125.036 0.863999H127.556L134.252 18H131.732L129.86 12.84H122.612L120.692 18H118.364L125.036 0.863999ZM136.854 14.088C136.87 14.536 136.974 14.92 137.166 15.24C137.358 15.544 137.606 15.792 137.91 15.984C138.23 16.16 138.582 16.288 138.966 16.368C139.366 16.448 139.774 16.488 140.19 16.488C140.51 16.488 140.846 16.464 141.198 16.416C141.55 16.368 141.87 16.28 142.158 16.152C142.462 16.024 142.71 15.84 142.902 15.6C143.094 15.344 143.19 15.024 143.19 14.64C143.19 14.112 142.99 13.712 142.59 13.44C142.19 13.168 141.686 12.952 141.078 12.792C140.486 12.616 139.838 12.464 139.134 12.336C138.43 12.192 137.774 12 137.166 11.76C136.574 11.504 136.078 11.152 135.678 10.704C135.278 10.256 135.078 9.632 135.078 8.832C135.078 8.208 135.214 7.672 135.486 7.224C135.774 6.776 136.134 6.416 136.566 6.144C137.014 5.856 137.51 5.648 138.054 5.52C138.614 5.376 139.166 5.304 139.71 5.304C140.414 5.304 141.062 5.368 141.654 5.496C142.246 5.608 142.766 5.816 143.214 6.12C143.678 6.408 144.046 6.808 144.318 7.32C144.59 7.816 144.75 8.44 144.798 9.192H142.758C142.726 8.792 142.622 8.464 142.446 8.208C142.27 7.936 142.046 7.72 141.774 7.56C141.502 7.4 141.198 7.288 140.862 7.224C140.542 7.144 140.214 7.104 139.878 7.104C139.574 7.104 139.262 7.128 138.942 7.176C138.638 7.224 138.358 7.312 138.102 7.44C137.846 7.552 137.638 7.712 137.478 7.92C137.318 8.112 137.238 8.368 137.238 8.688C137.238 9.04 137.358 9.336 137.598 9.576C137.854 9.8 138.174 9.992 138.558 10.152C138.942 10.296 139.374 10.424 139.854 10.536C140.334 10.632 140.814 10.736 141.294 10.848C141.806 10.96 142.302 11.096 142.782 11.256C143.278 11.416 143.71 11.632 144.078 11.904C144.462 12.16 144.766 12.488 144.99 12.888C145.23 13.288 145.35 13.784 145.35 14.376C145.35 15.128 145.19 15.752 144.87 16.248C144.566 16.744 144.158 17.144 143.646 17.448C143.15 17.752 142.582 17.96 141.942 18.072C141.318 18.2 140.694 18.264 140.07 18.264C139.382 18.264 138.726 18.192 138.102 18.048C137.478 17.904 136.926 17.672 136.446 17.352C135.966 17.016 135.582 16.584 135.294 16.056C135.006 15.512 134.846 14.856 134.814 14.088H136.854ZM148.854 14.088C148.87 14.536 148.974 14.92 149.166 15.24C149.358 15.544 149.606 15.792 149.91 15.984C150.23 16.16 150.582 16.288 150.966 16.368C151.366 16.448 151.774 16.488 152.19 16.488C152.51 16.488 152.846 16.464 153.198 16.416C153.55 16.368 153.87 16.28 154.158 16.152C154.462 16.024 154.71 15.84 154.902 15.6C155.094 15.344 155.19 15.024 155.19 14.64C155.19 14.112 154.99 13.712 154.59 13.44C154.19 13.168 153.686 12.952 153.078 12.792C152.486 12.616 151.838 12.464 151.134 12.336C150.43 12.192 149.774 12 149.166 11.76C148.574 11.504 148.078 11.152 147.678 10.704C147.278 10.256 147.078 9.632 147.078 8.832C147.078 8.208 147.214 7.672 147.486 7.224C147.774 6.776 148.134 6.416 148.566 6.144C149.014 5.856 149.51 5.648 150.054 5.52C150.614 5.376 151.166 5.304 151.71 5.304C152.414 5.304 153.062 5.368 153.654 5.496C154.246 5.608 154.766 5.816 155.214 6.12C155.678 6.408 156.046 6.808 156.318 7.32C156.59 7.816 156.75 8.44 156.798 9.192H154.758C154.726 8.792 154.622 8.464 154.446 8.208C154.27 7.936 154.046 7.72 153.774 7.56C153.502 7.4 153.198 7.288 152.862 7.224C152.542 7.144 152.214 7.104 151.878 7.104C151.574 7.104 151.262 7.128 150.942 7.176C150.638 7.224 150.358 7.312 150.102 7.44C149.846 7.552 149.638 7.712 149.478 7.92C149.318 8.112 149.238 8.368 149.238 8.688C149.238 9.04 149.358 9.336 149.598 9.576C149.854 9.8 150.174 9.992 150.558 10.152C150.942 10.296 151.374 10.424 151.854 10.536C152.334 10.632 152.814 10.736 153.294 10.848C153.806 10.96 154.302 11.096 154.782 11.256C155.278 11.416 155.71 11.632 156.078 11.904C156.462 12.16 156.766 12.488 156.99 12.888C157.23 13.288 157.35 13.784 157.35 14.376C157.35 15.128 157.19 15.752 156.87 16.248C156.566 16.744 156.158 17.144 155.646 17.448C155.15 17.752 154.582 17.96 153.942 18.072C153.318 18.2 152.694 18.264 152.07 18.264C151.382 18.264 150.726 18.192 150.102 18.048C149.478 17.904 148.926 17.672 148.446 17.352C147.966 17.016 147.582 16.584 147.294 16.056C147.006 15.512 146.846 14.856 146.814 14.088H148.854ZM161.766 3.36H159.726V0.863999H161.766V3.36ZM159.726 5.592H161.766V18H159.726V5.592ZM166.175 14.088C166.191 14.536 166.295 14.92 166.487 15.24C166.679 15.544 166.927 15.792 167.231 15.984C167.551 16.16 167.903 16.288 168.287 16.368C168.687 16.448 169.095 16.488 169.511 16.488C169.831 16.488 170.167 16.464 170.519 16.416C170.871 16.368 171.191 16.28 171.479 16.152C171.783 16.024 172.031 15.84 172.223 15.6C172.415 15.344 172.511 15.024 172.511 14.64C172.511 14.112 172.311 13.712 171.911 13.44C171.511 13.168 171.007 12.952 170.399 12.792C169.807 12.616 169.159 12.464 168.455 12.336C167.751 12.192 167.095 12 166.487 11.76C165.895 11.504 165.399 11.152 164.999 10.704C164.599 10.256 164.399 9.632 164.399 8.832C164.399 8.208 164.535 7.672 164.807 7.224C165.095 6.776 165.455 6.416 165.887 6.144C166.335 5.856 166.831 5.648 167.375 5.52C167.935 5.376 168.487 5.304 169.031 5.304C169.735 5.304 170.383 5.368 170.975 5.496C171.567 5.608 172.087 5.816 172.535 6.12C172.999 6.408 173.367 6.808 173.639 7.32C173.911 7.816 174.071 8.44 174.119 9.192H172.079C172.047 8.792 171.943 8.464 171.767 8.208C171.591 7.936 171.367 7.72 171.095 7.56C170.823 7.4 170.519 7.288 170.183 7.224C169.863 7.144 169.535 7.104 169.199 7.104C168.895 7.104 168.583 7.128 168.263 7.176C167.959 7.224 167.679 7.312 167.423 7.44C167.167 7.552 166.959 7.712 166.799 7.92C166.639 8.112 166.559 8.368 166.559 8.688C166.559 9.04 166.679 9.336 166.919 9.576C167.175 9.8 167.495 9.992 167.879 10.152C168.263 10.296 168.695 10.424 169.175 10.536C169.655 10.632 170.135 10.736 170.615 10.848C171.127 10.96 171.623 11.096 172.103 11.256C172.599 11.416 173.031 11.632 173.399 11.904C173.783 12.16 174.087 12.488 174.311 12.888C174.551 13.288 174.671 13.784 174.671 14.376C174.671 15.128 174.511 15.752 174.191 16.248C173.887 16.744 173.479 17.144 172.967 17.448C172.471 17.752 171.903 17.96 171.263 18.072C170.639 18.2 170.015 18.264 169.391 18.264C168.703 18.264 168.047 18.192 167.423 18.048C166.799 17.904 166.247 17.672 165.767 17.352C165.287 17.016 164.903 16.584 164.615 16.056C164.327 15.512 164.167 14.856 164.135 14.088H166.175ZM179.759 5.592H182.231V7.392H179.759V15.096C179.759 15.336 179.775 15.528 179.807 15.672C179.855 15.816 179.935 15.928 180.047 16.008C180.159 16.088 180.311 16.144 180.503 16.176C180.711 16.192 180.975 16.2 181.295 16.2H182.231V18H180.671C180.143 18 179.687 17.968 179.303 17.904C178.935 17.824 178.631 17.688 178.391 17.496C178.167 17.304 177.999 17.032 177.887 16.68C177.775 16.328 177.719 15.864 177.719 15.288V7.392H175.607V5.592H177.719V1.872H179.759V5.592ZM195.489 17.952C195.137 18.16 194.649 18.264 194.025 18.264C193.497 18.264 193.073 18.12 192.753 17.832C192.449 17.528 192.297 17.04 192.297 16.368C191.737 17.04 191.081 17.528 190.329 17.832C189.593 18.12 188.793 18.264 187.929 18.264C187.369 18.264 186.833 18.2 186.321 18.072C185.825 17.944 185.393 17.744 185.025 17.472C184.657 17.2 184.361 16.848 184.137 16.416C183.929 15.968 183.825 15.432 183.825 14.808C183.825 14.104 183.945 13.528 184.185 13.08C184.425 12.632 184.737 12.272 185.121 12C185.521 11.712 185.969 11.496 186.465 11.352C186.977 11.208 187.497 11.088 188.025 10.992C188.585 10.88 189.113 10.8 189.609 10.752C190.121 10.688 190.569 10.608 190.953 10.512C191.337 10.4 191.641 10.248 191.865 10.056C192.089 9.848 192.201 9.552 192.201 9.168C192.201 8.72 192.113 8.36 191.937 8.088C191.777 7.816 191.561 7.608 191.289 7.464C191.033 7.32 190.737 7.224 190.401 7.176C190.081 7.128 189.761 7.104 189.441 7.104C188.577 7.104 187.857 7.272 187.281 7.608C186.705 7.928 186.393 8.544 186.345 9.456H184.305C184.337 8.688 184.497 8.04 184.785 7.512C185.073 6.984 185.457 6.56 185.937 6.24C186.417 5.904 186.961 5.664 187.569 5.52C188.193 5.376 188.857 5.304 189.561 5.304C190.121 5.304 190.673 5.344 191.217 5.424C191.777 5.504 192.281 5.672 192.729 5.928C193.177 6.168 193.537 6.512 193.809 6.96C194.081 7.408 194.217 7.992 194.217 8.712V15.096C194.217 15.576 194.241 15.928 194.289 16.152C194.353 16.376 194.545 16.488 194.865 16.488C195.041 16.488 195.249 16.448 195.489 16.368V17.952ZM192.177 11.592C191.921 11.784 191.585 11.928 191.169 12.024C190.753 12.104 190.313 12.176 189.849 12.24C189.401 12.288 188.945 12.352 188.481 12.432C188.017 12.496 187.601 12.608 187.233 12.768C186.865 12.928 186.561 13.16 186.321 13.464C186.097 13.752 185.985 14.152 185.985 14.664C185.985 15 186.049 15.288 186.177 15.528C186.321 15.752 186.497 15.936 186.705 16.08C186.929 16.224 187.185 16.328 187.473 16.392C187.761 16.456 188.065 16.488 188.385 16.488C189.057 16.488 189.633 16.4 190.113 16.224C190.593 16.032 190.985 15.8 191.289 15.528C191.593 15.24 191.817 14.936 191.961 14.616C192.105 14.28 192.177 13.968 192.177 13.68V11.592ZM197.388 5.592H199.308V7.56H199.356C200.204 6.056 201.548 5.304 203.388 5.304C204.204 5.304 204.884 5.416 205.428 5.64C205.972 5.864 206.412 6.176 206.748 6.576C207.084 6.976 207.316 7.456 207.444 8.016C207.588 8.56 207.66 9.168 207.66 9.84V18H205.62V9.6C205.62 8.832 205.396 8.224 204.948 7.776C204.5 7.328 203.884 7.104 203.1 7.104C202.476 7.104 201.932 7.2 201.468 7.392C201.02 7.584 200.644 7.856 200.34 8.208C200.036 8.56 199.804 8.976 199.644 9.456C199.5 9.92 199.428 10.432 199.428 10.992V18H197.388V5.592ZM213.556 5.592H216.028V7.392H213.556V15.096C213.556 15.336 213.572 15.528 213.604 15.672C213.652 15.816 213.732 15.928 213.844 16.008C213.956 16.088 214.108 16.144 214.3 16.176C214.508 16.192 214.772 16.2 215.092 16.2H216.028V18H214.468C213.94 18 213.484 17.968 213.1 17.904C212.732 17.824 212.428 17.688 212.188 17.496C211.964 17.304 211.796 17.032 211.684 16.68C211.572 16.328 211.516 15.864 211.516 15.288V7.392H209.404V5.592H211.516V1.872H213.556V5.592Z" fill="black"/>
<path d="M6.00219 2.784H0.290188V0.863999H13.9942V2.784H8.28219V18H6.00219V2.784ZM23.8796 17.952C23.5276 18.16 23.0396 18.264 22.4156 18.264C21.8876 18.264 21.4636 18.12 21.1436 17.832C20.8396 17.528 20.6876 17.04 20.6876 16.368C20.1276 17.04 19.4716 17.528 18.7196 17.832C17.9836 18.12 17.1836 18.264 16.3196 18.264C15.7596 18.264 15.2236 18.2 14.7116 18.072C14.2156 17.944 13.7836 17.744 13.4156 17.472C13.0476 17.2 12.7516 16.848 12.5276 16.416C12.3196 15.968 12.2156 15.432 12.2156 14.808C12.2156 14.104 12.3356 13.528 12.5756 13.08C12.8156 12.632 13.1276 12.272 13.5116 12C13.9116 11.712 14.3596 11.496 14.8556 11.352C15.3676 11.208 15.8876 11.088 16.4156 10.992C16.9756 10.88 17.5036 10.8 17.9996 10.752C18.5116 10.688 18.9596 10.608 19.3436 10.512C19.7276 10.4 20.0316 10.248 20.2556 10.056C20.4796 9.848 20.5916 9.552 20.5916 9.168C20.5916 8.72 20.5036 8.36 20.3276 8.088C20.1676 7.816 19.9516 7.608 19.6796 7.464C19.4236 7.32 19.1276 7.224 18.7916 7.176C18.4716 7.128 18.1516 7.104 17.8316 7.104C16.9676 7.104 16.2476 7.272 15.6716 7.608C15.0956 7.928 14.7836 8.544 14.7356 9.456H12.6956C12.7276 8.688 12.8876 8.04 13.1756 7.512C13.4636 6.984 13.8476 6.56 14.3276 6.24C14.8076 5.904 15.3516 5.664 15.9596 5.52C16.5836 5.376 17.2476 5.304 17.9516 5.304C18.5116 5.304 19.0636 5.344 19.6076 5.424C20.1676 5.504 20.6716 5.672 21.1196 5.928C21.5676 6.168 21.9276 6.512 22.1996 6.96C22.4716 7.408 22.6076 7.992 22.6076 8.712V15.096C22.6076 15.576 22.6316 15.928 22.6796 16.152C22.7436 16.376 22.9356 16.488 23.2556 16.488C23.4316 16.488 23.6396 16.448 23.8796 16.368V17.952ZM20.5676 11.592C20.3116 11.784 19.9756 11.928 19.5596 12.024C19.1436 12.104 18.7036 12.176 18.2396 12.24C17.7916 12.288 17.3356 12.352 16.8716 12.432C16.4076 12.496 15.9916 12.608 15.6236 12.768C15.2556 12.928 14.9516 13.16 14.7116 13.464C14.4876 13.752 14.3756 14.152 14.3756 14.664C14.3756 15 14.4396 15.288 14.5676 15.528C14.7116 15.752 14.8876 15.936 15.0956 16.08C15.3196 16.224 15.5756 16.328 15.8636 16.392C16.1516 16.456 16.4556 16.488 16.7756 16.488C17.4476 16.488 18.0236 16.4 18.5036 16.224C18.9836 16.032 19.3756 15.8 19.6796 15.528C19.9836 15.24 20.2076 14.936 20.3516 14.616C20.4956 14.28 20.5676 13.968 20.5676 13.68V11.592ZM25.8982 0.863999H27.9382V18H25.8982V0.863999ZM31.2185 0.863999H33.2585V11.016L38.9225 5.592H41.6585L36.7385 10.104L42.0185 18H39.4265L35.1785 11.52L33.2585 13.296V18H31.2185V0.863999ZM53.0555 5.592H55.5275V7.392H53.0555V15.096C53.0555 15.336 53.0715 15.528 53.1035 15.672C53.1515 15.816 53.2315 15.928 53.3435 16.008C53.4555 16.088 53.6075 16.144 53.7995 16.176C54.0075 16.192 54.2715 16.2 54.5915 16.2H55.5275V18H53.9675C53.4395 18 52.9835 17.968 52.5995 17.904C52.2315 17.824 51.9275 17.688 51.6875 17.496C51.4635 17.304 51.2955 17.032 51.1835 16.68C51.0715 16.328 51.0155 15.864 51.0155 15.288V7.392H48.9035V5.592H51.0155V1.872H53.0555V5.592ZM59.2818 11.808C59.2818 12.56 59.3778 13.232 59.5698 13.824C59.7778 14.4 60.0578 14.888 60.4098 15.288C60.7618 15.672 61.1698 15.968 61.6338 16.176C62.1138 16.384 62.6178 16.488 63.1458 16.488C63.6738 16.488 64.1698 16.384 64.6338 16.176C65.1138 15.968 65.5298 15.672 65.8818 15.288C66.2338 14.888 66.5058 14.4 66.6978 13.824C66.9058 13.232 67.0098 12.56 67.0098 11.808C67.0098 11.056 66.9058 10.392 66.6978 9.816C66.5058 9.224 66.2338 8.728 65.8818 8.328C65.5298 7.928 65.1138 7.624 64.6338 7.416C64.1698 7.208 63.6738 7.104 63.1458 7.104C62.6178 7.104 62.1138 7.208 61.6338 7.416C61.1698 7.624 60.7618 7.928 60.4098 8.328C60.0578 8.728 59.7778 9.224 59.5698 9.816C59.3778 10.392 59.2818 11.056 59.2818 11.808ZM57.1218 11.808C57.1218 10.896 57.2498 10.048 57.5058 9.264C57.7618 8.464 58.1458 7.776 58.6578 7.2C59.1698 6.608 59.8018 6.144 60.5538 5.808C61.3058 5.472 62.1698 5.304 63.1458 5.304C64.1378 5.304 65.0018 5.472 65.7378 5.808C66.4898 6.144 67.1218 6.608 67.6338 7.2C68.1458 7.776 68.5298 8.464 68.7858 9.264C69.0418 10.048 69.1698 10.896 69.1698 11.808C69.1698 12.72 69.0418 13.568 68.7858 14.352C68.5298 15.136 68.1458 15.824 67.6338 16.416C67.1218 16.992 66.4898 17.448 65.7378 17.784C65.0018 18.104 64.1378 18.264 63.1458 18.264C62.1698 18.264 61.3058 18.104 60.5538 17.784C59.8018 17.448 59.1698 16.992 58.6578 16.416C58.1458 15.824 57.7618 15.136 57.5058 14.352C57.2498 13.568 57.1218 12.72 57.1218 11.808ZM79.7428 11.808C79.7428 12.56 79.8388 13.232 80.0308 13.824C80.2388 14.4 80.5188 14.888 80.8708 15.288C81.2228 15.672 81.6308 15.968 82.0948 16.176C82.5748 16.384 83.0788 16.488 83.6068 16.488C84.1348 16.488 84.6308 16.384 85.0948 16.176C85.5748 15.968 85.9908 15.672 86.3428 15.288C86.6948 14.888 86.9668 14.4 87.1588 13.824C87.3668 13.232 87.4708 12.56 87.4708 11.808C87.4708 11.056 87.3668 10.392 87.1588 9.816C86.9668 9.224 86.6948 8.728 86.3428 8.328C85.9908 7.928 85.5748 7.624 85.0948 7.416C84.6308 7.208 84.1348 7.104 83.6068 7.104C83.0788 7.104 82.5748 7.208 82.0948 7.416C81.6308 7.624 81.2228 7.928 80.8708 8.328C80.5188 8.728 80.2388 9.224 80.0308 9.816C79.8388 10.392 79.7428 11.056 79.7428 11.808ZM77.5828 11.808C77.5828 10.896 77.7108 10.048 77.9668 9.264C78.2228 8.464 78.6068 7.776 79.1188 7.2C79.6308 6.608 80.2628 6.144 81.0148 5.808C81.7668 5.472 82.6308 5.304 83.6068 5.304C84.5988 5.304 85.4628 5.472 86.1988 5.808C86.9508 6.144 87.5828 6.608 88.0948 7.2C88.6068 7.776 88.9908 8.464 89.2468 9.264C89.5028 10.048 89.6308 10.896 89.6308 11.808C89.6308 12.72 89.5028 13.568 89.2468 14.352C88.9908 15.136 88.6068 15.824 88.0948 16.416C87.5828 16.992 86.9508 17.448 86.1988 17.784C85.4628 18.104 84.5988 18.264 83.6068 18.264C82.6308 18.264 81.7668 18.104 81.0148 17.784C80.2628 17.448 79.6308 16.992 79.1188 16.416C78.6068 15.824 78.2228 15.136 77.9668 14.352C77.7108 13.568 77.5828 12.72 77.5828 11.808ZM102.308 18H100.388V16.032H100.34C99.908 16.8 99.356 17.368 98.684 17.736C98.012 18.088 97.22 18.264 96.308 18.264C95.492 18.264 94.812 18.16 94.268 17.952C93.724 17.728 93.284 17.416 92.948 17.016C92.612 16.616 92.372 16.144 92.228 15.6C92.1 15.04 92.036 14.424 92.036 13.752V5.592H94.076V13.992C94.076 14.76 94.3 15.368 94.748 15.816C95.196 16.264 95.812 16.488 96.596 16.488C97.22 16.488 97.756 16.392 98.204 16.2C98.668 16.008 99.052 15.736 99.356 15.384C99.66 15.032 99.884 14.624 100.028 14.16C100.188 13.68 100.268 13.16 100.268 12.6V5.592H102.308V18ZM105.3 5.592H107.22V8.208H107.268C107.764 7.2 108.372 6.456 109.092 5.976C109.812 5.496 110.724 5.272 111.828 5.304V7.464C111.012 7.464 110.316 7.576 109.74 7.8C109.164 8.024 108.7 8.352 108.348 8.784C107.996 9.216 107.74 9.744 107.58 10.368C107.42 10.976 107.34 11.68 107.34 12.48V18H105.3V5.592ZM123.332 10.92H129.14L126.284 2.928H126.236L123.332 10.92ZM125.036 0.863999H127.556L134.252 18H131.732L129.86 12.84H122.612L120.692 18H118.364L125.036 0.863999ZM136.854 14.088C136.87 14.536 136.974 14.92 137.166 15.24C137.358 15.544 137.606 15.792 137.91 15.984C138.23 16.16 138.582 16.288 138.966 16.368C139.366 16.448 139.774 16.488 140.19 16.488C140.51 16.488 140.846 16.464 141.198 16.416C141.55 16.368 141.87 16.28 142.158 16.152C142.462 16.024 142.71 15.84 142.902 15.6C143.094 15.344 143.19 15.024 143.19 14.64C143.19 14.112 142.99 13.712 142.59 13.44C142.19 13.168 141.686 12.952 141.078 12.792C140.486 12.616 139.838 12.464 139.134 12.336C138.43 12.192 137.774 12 137.166 11.76C136.574 11.504 136.078 11.152 135.678 10.704C135.278 10.256 135.078 9.632 135.078 8.832C135.078 8.208 135.214 7.672 135.486 7.224C135.774 6.776 136.134 6.416 136.566 6.144C137.014 5.856 137.51 5.648 138.054 5.52C138.614 5.376 139.166 5.304 139.71 5.304C140.414 5.304 141.062 5.368 141.654 5.496C142.246 5.608 142.766 5.816 143.214 6.12C143.678 6.408 144.046 6.808 144.318 7.32C144.59 7.816 144.75 8.44 144.798 9.192H142.758C142.726 8.792 142.622 8.464 142.446 8.208C142.27 7.936 142.046 7.72 141.774 7.56C141.502 7.4 141.198 7.288 140.862 7.224C140.542 7.144 140.214 7.104 139.878 7.104C139.574 7.104 139.262 7.128 138.942 7.176C138.638 7.224 138.358 7.312 138.102 7.44C137.846 7.552 137.638 7.712 137.478 7.92C137.318 8.112 137.238 8.368 137.238 8.688C137.238 9.04 137.358 9.336 137.598 9.576C137.854 9.8 138.174 9.992 138.558 10.152C138.942 10.296 139.374 10.424 139.854 10.536C140.334 10.632 140.814 10.736 141.294 10.848C141.806 10.96 142.302 11.096 142.782 11.256C143.278 11.416 143.71 11.632 144.078 11.904C144.462 12.16 144.766 12.488 144.99 12.888C145.23 13.288 145.35 13.784 145.35 14.376C145.35 15.128 145.19 15.752 144.87 16.248C144.566 16.744 144.158 17.144 143.646 17.448C143.15 17.752 142.582 17.96 141.942 18.072C141.318 18.2 140.694 18.264 140.07 18.264C139.382 18.264 138.726 18.192 138.102 18.048C137.478 17.904 136.926 17.672 136.446 17.352C135.966 17.016 135.582 16.584 135.294 16.056C135.006 15.512 134.846 14.856 134.814 14.088H136.854ZM148.854 14.088C148.87 14.536 148.974 14.92 149.166 15.24C149.358 15.544 149.606 15.792 149.91 15.984C150.23 16.16 150.582 16.288 150.966 16.368C151.366 16.448 151.774 16.488 152.19 16.488C152.51 16.488 152.846 16.464 153.198 16.416C153.55 16.368 153.87 16.28 154.158 16.152C154.462 16.024 154.71 15.84 154.902 15.6C155.094 15.344 155.19 15.024 155.19 14.64C155.19 14.112 154.99 13.712 154.59 13.44C154.19 13.168 153.686 12.952 153.078 12.792C152.486 12.616 151.838 12.464 151.134 12.336C150.43 12.192 149.774 12 149.166 11.76C148.574 11.504 148.078 11.152 147.678 10.704C147.278 10.256 147.078 9.632 147.078 8.832C147.078 8.208 147.214 7.672 147.486 7.224C147.774 6.776 148.134 6.416 148.566 6.144C149.014 5.856 149.51 5.648 150.054 5.52C150.614 5.376 151.166 5.304 151.71 5.304C152.414 5.304 153.062 5.368 153.654 5.496C154.246 5.608 154.766 5.816 155.214 6.12C155.678 6.408 156.046 6.808 156.318 7.32C156.59 7.816 156.75 8.44 156.798 9.192H154.758C154.726 8.792 154.622 8.464 154.446 8.208C154.27 7.936 154.046 7.72 153.774 7.56C153.502 7.4 153.198 7.288 152.862 7.224C152.542 7.144 152.214 7.104 151.878 7.104C151.574 7.104 151.262 7.128 150.942 7.176C150.638 7.224 150.358 7.312 150.102 7.44C149.846 7.552 149.638 7.712 149.478 7.92C149.318 8.112 149.238 8.368 149.238 8.688C149.238 9.04 149.358 9.336 149.598 9.576C149.854 9.8 150.174 9.992 150.558 10.152C150.942 10.296 151.374 10.424 151.854 10.536C152.334 10.632 152.814 10.736 153.294 10.848C153.806 10.96 154.302 11.096 154.782 11.256C155.278 11.416 155.71 11.632 156.078 11.904C156.462 12.16 156.766 12.488 156.99 12.888C157.23 13.288 157.35 13.784 157.35 14.376C157.35 15.128 157.19 15.752 156.87 16.248C156.566 16.744 156.158 17.144 155.646 17.448C155.15 17.752 154.582 17.96 153.942 18.072C153.318 18.2 152.694 18.264 152.07 18.264C151.382 18.264 150.726 18.192 150.102 18.048C149.478 17.904 148.926 17.672 148.446 17.352C147.966 17.016 147.582 16.584 147.294 16.056C147.006 15.512 146.846 14.856 146.814 14.088H148.854ZM161.766 3.36H159.726V0.863999H161.766V3.36ZM159.726 5.592H161.766V18H159.726V5.592ZM166.175 14.088C166.191 14.536 166.295 14.92 166.487 15.24C166.679 15.544 166.927 15.792 167.231 15.984C167.551 16.16 167.903 16.288 168.287 16.368C168.687 16.448 169.095 16.488 169.511 16.488C169.831 16.488 170.167 16.464 170.519 16.416C170.871 16.368 171.191 16.28 171.479 16.152C171.783 16.024 172.031 15.84 172.223 15.6C172.415 15.344 172.511 15.024 172.511 14.64C172.511 14.112 172.311 13.712 171.911 13.44C171.511 13.168 171.007 12.952 170.399 12.792C169.807 12.616 169.159 12.464 168.455 12.336C167.751 12.192 167.095 12 166.487 11.76C165.895 11.504 165.399 11.152 164.999 10.704C164.599 10.256 164.399 9.632 164.399 8.832C164.399 8.208 164.535 7.672 164.807 7.224C165.095 6.776 165.455 6.416 165.887 6.144C166.335 5.856 166.831 5.648 167.375 5.52C167.935 5.376 168.487 5.304 169.031 5.304C169.735 5.304 170.383 5.368 170.975 5.496C171.567 5.608 172.087 5.816 172.535 6.12C172.999 6.408 173.367 6.808 173.639 7.32C173.911 7.816 174.071 8.44 174.119 9.192H172.079C172.047 8.792 171.943 8.464 171.767 8.208C171.591 7.936 171.367 7.72 171.095 7.56C170.823 7.4 170.519 7.288 170.183 7.224C169.863 7.144 169.535 7.104 169.199 7.104C168.895 7.104 168.583 7.128 168.263 7.176C167.959 7.224 167.679 7.312 167.423 7.44C167.167 7.552 166.959 7.712 166.799 7.92C166.639 8.112 166.559 8.368 166.559 8.688C166.559 9.04 166.679 9.336 166.919 9.576C167.175 9.8 167.495 9.992 167.879 10.152C168.263 10.296 168.695 10.424 169.175 10.536C169.655 10.632 170.135 10.736 170.615 10.848C171.127 10.96 171.623 11.096 172.103 11.256C172.599 11.416 173.031 11.632 173.399 11.904C173.783 12.16 174.087 12.488 174.311 12.888C174.551 13.288 174.671 13.784 174.671 14.376C174.671 15.128 174.511 15.752 174.191 16.248C173.887 16.744 173.479 17.144 172.967 17.448C172.471 17.752 171.903 17.96 171.263 18.072C170.639 18.2 170.015 18.264 169.391 18.264C168.703 18.264 168.047 18.192 167.423 18.048C166.799 17.904 166.247 17.672 165.767 17.352C165.287 17.016 164.903 16.584 164.615 16.056C164.327 15.512 164.167 14.856 164.135 14.088H166.175ZM179.759 5.592H182.231V7.392H179.759V15.096C179.759 15.336 179.775 15.528 179.807 15.672C179.855 15.816 179.935 15.928 180.047 16.008C180.159 16.088 180.311 16.144 180.503 16.176C180.711 16.192 180.975 16.2 181.295 16.2H182.231V18H180.671C180.143 18 179.687 17.968 179.303 17.904C178.935 17.824 178.631 17.688 178.391 17.496C178.167 17.304 177.999 17.032 177.887 16.68C177.775 16.328 177.719 15.864 177.719 15.288V7.392H175.607V5.592H177.719V1.872H179.759V5.592ZM195.489 17.952C195.137 18.16 194.649 18.264 194.025 18.264C193.497 18.264 193.073 18.12 192.753 17.832C192.449 17.528 192.297 17.04 192.297 16.368C191.737 17.04 191.081 17.528 190.329 17.832C189.593 18.12 188.793 18.264 187.929 18.264C187.369 18.264 186.833 18.2 186.321 18.072C185.825 17.944 185.393 17.744 185.025 17.472C184.657 17.2 184.361 16.848 184.137 16.416C183.929 15.968 183.825 15.432 183.825 14.808C183.825 14.104 183.945 13.528 184.185 13.08C184.425 12.632 184.737 12.272 185.121 12C185.521 11.712 185.969 11.496 186.465 11.352C186.977 11.208 187.497 11.088 188.025 10.992C188.585 10.88 189.113 10.8 189.609 10.752C190.121 10.688 190.569 10.608 190.953 10.512C191.337 10.4 191.641 10.248 191.865 10.056C192.089 9.848 192.201 9.552 192.201 9.168C192.201 8.72 192.113 8.36 191.937 8.088C191.777 7.816 191.561 7.608 191.289 7.464C191.033 7.32 190.737 7.224 190.401 7.176C190.081 7.128 189.761 7.104 189.441 7.104C188.577 7.104 187.857 7.272 187.281 7.608C186.705 7.928 186.393 8.544 186.345 9.456H184.305C184.337 8.688 184.497 8.04 184.785 7.512C185.073 6.984 185.457 6.56 185.937 6.24C186.417 5.904 186.961 5.664 187.569 5.52C188.193 5.376 188.857 5.304 189.561 5.304C190.121 5.304 190.673 5.344 191.217 5.424C191.777 5.504 192.281 5.672 192.729 5.928C193.177 6.168 193.537 6.512 193.809 6.96C194.081 7.408 194.217 7.992 194.217 8.712V15.096C194.217 15.576 194.241 15.928 194.289 16.152C194.353 16.376 194.545 16.488 194.865 16.488C195.041 16.488 195.249 16.448 195.489 16.368V17.952ZM192.177 11.592C191.921 11.784 191.585 11.928 191.169 12.024C190.753 12.104 190.313 12.176 189.849 12.24C189.401 12.288 188.945 12.352 188.481 12.432C188.017 12.496 187.601 12.608 187.233 12.768C186.865 12.928 186.561 13.16 186.321 13.464C186.097 13.752 185.985 14.152 185.985 14.664C185.985 15 186.049 15.288 186.177 15.528C186.321 15.752 186.497 15.936 186.705 16.08C186.929 16.224 187.185 16.328 187.473 16.392C187.761 16.456 188.065 16.488 188.385 16.488C189.057 16.488 189.633 16.4 190.113 16.224C190.593 16.032 190.985 15.8 191.289 15.528C191.593 15.24 191.817 14.936 191.961 14.616C192.105 14.28 192.177 13.968 192.177 13.68V11.592ZM197.388 5.592H199.308V7.56H199.356C200.204 6.056 201.548 5.304 203.388 5.304C204.204 5.304 204.884 5.416 205.428 5.64C205.972 5.864 206.412 6.176 206.748 6.576C207.084 6.976 207.316 7.456 207.444 8.016C207.588 8.56 207.66 9.168 207.66 9.84V18H205.62V9.6C205.62 8.832 205.396 8.224 204.948 7.776C204.5 7.328 203.884 7.104 203.1 7.104C202.476 7.104 201.932 7.2 201.468 7.392C201.02 7.584 200.644 7.856 200.34 8.208C200.036 8.56 199.804 8.976 199.644 9.456C199.5 9.92 199.428 10.432 199.428 10.992V18H197.388V5.592ZM213.556 5.592H216.028V7.392H213.556V15.096C213.556 15.336 213.572 15.528 213.604 15.672C213.652 15.816 213.732 15.928 213.844 16.008C213.956 16.088 214.108 16.144 214.3 16.176C214.508 16.192 214.772 16.2 215.092 16.2H216.028V18H214.468C213.94 18 213.484 17.968 213.1 17.904C212.732 17.824 212.428 17.688 212.188 17.496C211.964 17.304 211.796 17.032 211.684 16.68C211.572 16.328 211.516 15.864 211.516 15.288V7.392H209.404V5.592H211.516V1.872H213.556V5.592Z" fill="url(#paint0_linear_419_3567)"/>
<defs>
<linearGradient id="paint0_linear_419_3567" x1="0" y1="9.5" x2="217" y2="9.5" gradientUnits="userSpaceOnUse">
<stop stop-color="#034EA1"/>
<stop offset="1" stop-color="#00B7AC"/>
</linearGradient>
</defs>
</svg>
