<svg width="24" height="24" viewBox="0 0 24 24" fill="none" xmlns="http://www.w3.org/2000/svg">
<path d="M3.22865 9.8149C2.69513 8.93707 2.47269 7.90666 2.59542 6.88733C2.71815 5.86801 3.17923 4.91944 3.90536 4.19323L5.40366 2.69578C5.64401 2.45458 5.97724 2.3276 6.3173 2.34719C6.65736 2.36594 6.97355 2.52958 7.18577 2.79634L9.79195 6.06907H9.7928C10.1925 6.57106 10.1252 7.29974 9.6394 7.71992L8.18884 8.97531H8.18969C7.74652 9.35883 7.64594 10.0074 7.95277 10.5068C9.28402 12.6742 11.107 14.4972 13.2744 15.8285C13.7739 16.1353 14.4224 16.0348 14.806 15.5916L16.0614 14.141V14.1419C16.4815 13.6561 17.2094 13.5887 17.7122 13.9885L20.9849 16.5947V16.5955C21.2517 16.8077 21.4153 17.1239 21.4341 17.464C21.4537 17.804 21.3267 18.1373 21.0855 18.3776L19.5881 19.8759C18.8619 20.602 17.9133 21.0631 16.8939 21.1859C15.8746 21.3086 14.8442 21.0861 13.9664 20.5526C9.57634 17.8884 5.89287 14.2049 3.22865 9.8149Z" fill="white"/>
</svg>
