<svg width="30" height="30" viewBox="0 0 36 36" fill="none" xmlns="http://www.w3.org/2000/svg">
<path d="M20.25 17.1H20.1V17.25V18.75C20.1 19.4944 19.4944 20.1 18.75 20.1H17.25C16.5056 20.1 15.9 19.4944 15.9 18.75V17.25V17.1H15.75H14.25C13.5056 17.1 12.9 16.4944 12.9 15.75V14.25C12.9 13.5056 13.5056 12.9 14.25 12.9H15.75H15.9V12.75V11.25C15.9 10.5056 16.5056 9.9 17.25 9.9H18.75C19.4944 9.9 20.1 10.5056 20.1 11.25V12.75V12.9H20.25H21.75C22.4944 12.9 23.1 13.5056 23.1 14.25V15.75C23.1 16.4944 22.4944 17.1 21.75 17.1H20.25ZM14.1 15.75V15.9H14.25H16.5C16.8312 15.9 17.1 16.1688 17.1 16.5V18.75V18.9H17.25H18.75H18.9V18.75V16.5C18.9 16.1688 19.1688 15.9 19.5 15.9H21.75H21.9V15.75V14.25V14.1H21.75H19.5C19.1688 14.1 18.9 13.8312 18.9 13.5V11.25V11.1H18.75H17.25H17.1V11.25V13.5C17.1 13.8312 16.8312 14.1 16.5 14.1H14.25H14.1V14.25V15.75Z" fill="#034EA1" stroke="white" stroke-width="0.3"/>
<path d="M26.25 4.35H23.3932C23.3173 3.50998 22.6095 2.85 21.75 2.85H20.6734C20.1082 1.93279 19.1014 1.35 18 1.35C16.8987 1.35 15.8911 1.93272 15.3266 2.85H14.25C13.3905 2.85 12.6827 3.50998 12.6068 4.35H9.75C7.59941 4.35 5.85 6.09941 5.85 8.25V30.75C5.85 32.9006 7.59941 34.65 9.75 34.65H26.25C28.4006 34.65 30.15 32.9006 30.15 30.75V8.25C30.15 6.09941 28.4006 4.35 26.25 4.35ZM14.4 4.65H15.888C16.2688 4.65 16.6081 4.41053 16.7358 4.05154C16.9279 3.51174 17.4368 3.15 18 3.15C18.5632 3.15 19.0721 3.51174 19.2642 4.05154C19.392 4.41061 19.7321 4.65 20.112 4.65H21.6V5.85H14.4V4.65ZM28.35 30.75C28.35 31.9077 27.4077 32.85 26.25 32.85H9.75C8.59234 32.85 7.65 31.9077 7.65 30.75V8.25C7.65 7.09234 8.59234 6.15 9.75 6.15H12.6068C12.6827 6.99002 13.3905 7.65 14.25 7.65H21.75C22.6095 7.65 23.3173 6.99002 23.3932 6.15H26.25C27.4077 6.15 28.35 7.09234 28.35 8.25V30.75Z" fill="#034EA1" stroke="white" stroke-width="0.3"/>
<path d="M15.75 25.65H24C24.3312 25.65 24.6 25.9188 24.6 26.25C24.6 26.5812 24.3312 26.85 24 26.85H15.75C15.4188 26.85 15.15 26.5812 15.15 26.25C15.15 25.9188 15.4188 25.65 15.75 25.65ZM15.75 22.65H24C24.3312 22.65 24.6 22.9188 24.6 23.25C24.6 23.5812 24.3312 23.85 24 23.85H15.75C15.4188 23.85 15.15 23.5812 15.15 23.25C15.15 22.9188 15.4188 22.65 15.75 22.65ZM15.75 28.65H24C24.3312 28.65 24.6 28.9188 24.6 29.25C24.6 29.5812 24.3312 29.85 24 29.85H15.75C15.4188 29.85 15.15 29.5812 15.15 29.25C15.15 28.9188 15.4188 28.65 15.75 28.65ZM12 25.65H12.75C13.0812 25.65 13.35 25.9188 13.35 26.25C13.35 26.5812 13.0812 26.85 12.75 26.85H12C11.6688 26.85 11.4 26.5812 11.4 26.25C11.4 25.9188 11.6688 25.65 12 25.65ZM12 22.65H12.75C13.0812 22.65 13.35 22.9188 13.35 23.25C13.35 23.5812 13.0812 23.85 12.75 23.85H12C11.6688 23.85 11.4 23.5812 11.4 23.25C11.4 22.9188 11.6688 22.65 12 22.65ZM12 28.65H12.75C13.0812 28.65 13.35 28.9188 13.35 29.25C13.35 29.5812 13.0812 29.85 12.75 29.85H12C11.6688 29.85 11.4 29.5812 11.4 29.25C11.4 28.9188 11.6688 28.65 12 28.65Z" fill="#034EA1" stroke="white" stroke-width="0.3"/>
</svg>
